<svg width="14" height="4" viewBox="0 0 14 4" fill="none" xmlns="http://www.w3.org/2000/svg">
<path d="M0.823223 1.82322C0.725592 1.92085 0.725592 2.07915 0.823223 2.17678L2.41421 3.76777C2.51184 3.8654 2.67014 3.8654 2.76777 3.76777C2.8654 3.67014 2.8654 3.51184 2.76777 3.41421L1.35355 2L2.76777 0.585786C2.8654 0.488155 2.8654 0.329864 2.76777 0.232233C2.67014 0.134602 2.51184 0.134602 2.41421 0.232233L0.823223 1.82322ZM13 2.25C13.1381 2.25 13.25 2.13807 13.25 2C13.25 1.86193 13.1381 1.75 13 1.75V2.25ZM1 2.25H13V1.75H1V2.25Z" fill="#B8B8B8"/>
</svg>
